<svg xmlns="http://www.w3.org/2000/svg" width="1200" height="252" viewBox="0 0 1200 252" role="img" aria-label="Editors, storefronts, merchant tools"><title>Editors, storefronts, merchant tools</title><defs><pattern id="grid" width="24" height="24" patternUnits="userSpaceOnUse"><circle cx="12" cy="12" r="1" fill="#376165"/></pattern></defs><rect width="1200" height="252" rx="16" fill="#102c31"/><rect x="650" width="550" height="252" fill="url(#grid)"/><text x="36" y="46" fill="#aec6c3" font-family="Arial,Helvetica,sans-serif" font-size="14" font-weight="700" letter-spacing="2.4">ALEXANDER ANUFRIEV / SELECTED WORK</text><text x="36" y="103" fill="#edf7f2" font-family="Arial,Helvetica,sans-serif" font-size="44" font-weight="700">Editors. Storefronts.</text><text x="36" y="155" fill="#edf7f2" font-family="Arial,Helvetica,sans-serif" font-size="44" font-weight="700">Merchant tools.</text><path d="M36 205h55" stroke="#76ddbb" stroke-width="5"/><text x="106" y="211" fill="#aec6c3" font-family="Arial,Helvetica,sans-serif" font-size="17">UI · state · APIs · production</text>
<g transform="translate(682 32)"><rect x="0" y="18" width="210" height="152" rx="10" fill="#173a3f" stroke="#376165"/><text x="16" y="46" fill="#aec6c3" font-family="Arial,Helvetica,sans-serif" font-size="13" font-weight="700">LAYERS</text><path d="M16 60h176" stroke="#376165"/><rect x="16" y="76" width="24" height="18" rx="3" fill="#efb68e"/><path d="M54 81h90m-90 9h63" stroke="#aec6c3" stroke-width="3"/><rect x="16" y="109" width="24" height="18" rx="3" fill="#76ddbb"/><path d="M54 114h108m-108 9h77" stroke="#aec6c3" stroke-width="3"/>
<rect x="154" y="-4" width="211" height="174" rx="10" fill="#173a3f" stroke="#376165"/><rect x="184" y="21" width="154" height="118" rx="4" fill="#efb68e"/><text x="207" y="109" fill="#263d3c" font-family="Arial,Helvetica,sans-serif" font-size="80" font-weight="700">Aa</text><rect x="178" y="15" width="166" height="130" fill="none" stroke="#76ddbb" stroke-width="2"/>
<g fill="#173a3f" stroke="#76ddbb" stroke-width="2"><rect x="174" y="11" width="8" height="8"/><rect x="340" y="11" width="8" height="8"/><rect x="174" y="141" width="8" height="8"/><rect x="340" y="141" width="8" height="8"/></g><path d="M327 126l4 32 9-9 10-1z" fill="#edf7f2" stroke="#173a3f" stroke-width="2"/>
<rect x="246" y="157" width="200" height="42" rx="8" fill="#173a3f" stroke="#376165"/><path d="M263 177l5 5 9-11" fill="none" stroke="#76ddbb" stroke-width="2.5"/><text x="289" y="183" fill="#edf7f2" font-family="Arial,Helvetica,sans-serif" font-size="14">State restored</text></g></svg>